<?xml version="1.0" encoding="UTF-8" standalone="no"?>
<svg
   svg:contrastcolor="ffffff"
   svg:template="Contrast"
   svg:presentation="2.5"
   svg:layouttype="undefined"
   svg:specialfontid="undefined"
   svg:id1="725"
   svg:id2="071"
   svg:companyname="Math Spectra"
   svg:companytagline="Explore the Beauty of Linear Algebra"
   version="1.1"
   viewBox="0 35 550 400"
   id="svg122"
   xmlns="http://www.w3.org/2000/svg"
   xmlns:svg="http://www.w3.org/2000/svg">
  <defs
     id="defs126" />
  <g
     fill="none"
     fill-rule="nonzero"
     stroke="none"
     stroke-width="1"
     stroke-linecap="butt"
     stroke-linejoin="miter"
     stroke-miterlimit="10"
     stroke-dasharray=""
     stroke-dashoffset="0"
     font-family="none"
     font-weight="none"
     font-size="none"
     text-anchor="none"
     style="mix-blend-mode: normal"
     id="g92">
    <g
       data-paper-data="{&quot;isGlobalGroup&quot;:true,&quot;bounds&quot;:{&quot;x&quot;:64.99999999999999,&quot;y&quot;:202.140249203768,&quot;width&quot;:420,&quot;height&quot;:65.71950159246398}}"
       id="g90">
      <g
         data-paper-data="{&quot;isPrimaryText&quot;:true}"
         id="g88">
        <path
           d="M98.71368,203.64871c-0.27934,-0.11174 -0.67042,0.05587 -1.00564,0.44695l-15.64325,15.92259l-15.97846,-16.2578c-0.05587,0 -0.11174,-0.05587 -0.11174,-0.11174c-0.05587,0 -0.05587,0 -0.11174,-0.05587h-0.16761l-0.11174,0.05587l-0.05587,0.05587c0,0 -0.05587,0 -0.16761,0.11174c-0.05587,0 -0.05587,0.05587 -0.05587,0.05587v0.22347h-0.27934v0.05587v39.38746c0,0.39108 0.33521,0.67042 0.72629,0.67042c0.39108,0 0.67042,-0.27934 0.67042,-0.67042v-37.59966l14.69348,14.97282l-5.19579,5.19579v-0.05587c-0.27934,0.27934 -0.27934,0.78216 0,1.06151v-0.05587l5.69861,5.64274c0.16761,0.16761 0.27934,0.22347 0.44695,0.22347c0.16761,0 0.33521,-0.11174 0.50282,-0.22347l5.58687,-5.64274c0.16761,-0.16761 0.22347,-0.27934 0.22347,-0.50282c0,-0.11174 -0.05587,-0.27934 -0.22347,-0.44695l-5.13992,-5.19579l14.74935,-14.97282v37.59966c0,0.39108 0.27934,0.67042 0.67042,0.67042c0.39108,0 0.67042,-0.27934 0.67042,-0.67042v-39.27572c0,-0.27934 -0.16761,-0.50282 -0.39108,-0.61456zM65.02483,204.03979l0.05587,-0.22347c0,0.05587 0,0.22347 -0.05587,0.27934c0,0 -0.05587,0 0,-0.05587zM66.08634,203.76044l0.33521,0.11174c-0.11174,0 -0.22347,-0.05587 -0.33521,-0.11174zM65.19244,203.87218l0.11174,-0.05587v0.05587zM86.81364,226.55489l-4.74884,4.74884l-4.69297,-4.74884l4.69297,-4.63711z"
           data-paper-data="{&quot;glyphName&quot;:&quot;M&quot;,&quot;glyphIndex&quot;:0,&quot;firstGlyphOfWord&quot;:true,&quot;word&quot;:1}"
           fill="#007a53"
           id="path66"
           style="fill:#004466;fill-opacity:1" />
        <path
           d="M106.92638,244.15354h0.05587c0.05587,0.05587 0.16761,0.05587 0.27934,0.05587c0.27934,0 0.50282,-0.16761 0.67042,-0.39108c6.08969,-12.12352 12.96155,-25.92309 18.9395,-37.99074l19.05124,37.99074c0.16761,0.33521 0.61456,0.50282 0.94977,0.33521c0.33521,-0.16761 0.50282,-0.50282 0.33521,-0.94977v0.05587l-19.66579,-39.33159c-0.11174,-0.22347 -0.39108,-0.33521 -0.67042,-0.33521c-0.22347,0 -0.44695,0.11174 -0.55869,0.33521l-19.66579,39.33159v-0.05587c-0.16761,0.44695 -0.05587,0.83803 0.27934,0.94977z"
           data-paper-data="{&quot;glyphName&quot;:&quot;A&quot;,&quot;glyphIndex&quot;:1,&quot;word&quot;:1}"
           fill="#007a53"
           id="path68"
           style="fill:#004466;fill-opacity:1" />
        <path
           d="M159.6106,203.59284h-15.25216c-0.39108,0 -0.67042,0.27934 -0.67042,0.67042c0,0.39108 0.27934,0.67042 0.67042,0.67042h14.52587v38.6053c0,0.39108 0.27934,0.67042 0.72629,0.67042c0.39108,0 0.67042,-0.27934 0.67042,-0.67042v-39.27572c0,-0.39108 -0.27934,-0.67042 -0.67042,-0.67042zM174.8069,203.59284h-11.11788c-0.39108,0 -0.67042,0.27934 -0.67042,0.67042c0,0.39108 0.27934,0.67042 0.67042,0.67042h11.11788c0.39108,0 0.67042,-0.27934 0.67042,-0.67042c0,-0.39108 -0.27934,-0.67042 -0.67042,-0.67042z"
           data-paper-data="{&quot;glyphName&quot;:&quot;T&quot;,&quot;glyphIndex&quot;:2,&quot;word&quot;:1}"
           fill="#007a53"
           id="path70"
           style="fill:#004466;fill-opacity:1" />
        <path
           d="M204.24972,224.26427h-19.8334v-20.00101c0,-0.39108 -0.27934,-0.67042 -0.72629,-0.67042c-0.39108,0 -0.67042,0.27934 -0.67042,0.67042v39.27572c0,0.39108 0.27934,0.67042 0.67042,0.67042c0.44695,0 0.72629,-0.27934 0.72629,-0.67042v-17.93386h19.8334c0.39108,0 0.67042,-0.27934 0.67042,-0.67042c0,-0.39108 -0.27934,-0.67042 -0.67042,-0.67042zM209.38964,203.59284c-0.39108,0 -0.67042,0.27934 -0.67042,0.67042v39.27572c0,0.39108 0.27934,0.67042 0.67042,0.67042c0.39108,0 0.67042,-0.27934 0.67042,-0.67042v-39.27572c0,-0.39108 -0.27934,-0.67042 -0.67042,-0.67042z"
           data-paper-data="{&quot;glyphName&quot;:&quot;H&quot;,&quot;glyphIndex&quot;:3,&quot;lastGlyphOfWord&quot;:true,&quot;word&quot;:1}"
           fill="#007a53"
           id="path72"
           style="fill:#004466;fill-opacity:1" />
        <path
           d="M254.41984,223.48211h0.05587l-2.79344,-0.55869c-0.39108,-0.05587 -0.78216,0.16761 -0.83803,0.50282c-0.05587,0.39108 0.16761,0.78216 0.50282,0.83803l2.84931,0.55869c4.30189,0.83803 7.43054,4.74884 7.43054,9.16247c0,4.86058 -4.02255,8.82726 -8.77139,8.82726h-7.65402c-4.80471,0 -8.77139,-3.96668 -8.77139,-8.82726v-1.84367c0,-0.44695 -0.33521,-0.72629 -0.72629,-0.72629c-0.39108,0 -0.67042,0.27934 -0.67042,0.72629v1.84367c0,5.64274 4.52537,10.22398 10.16811,10.22398h7.65402c5.58687,0 10.11224,-4.58124 10.11224,-10.39158c0,-4.97232 -3.5756,-9.33008 -8.54792,-10.33572zM243.58131,222.69994l2.29062,0.50282h0.22347c0.22347,0 0.50282,-0.27934 0.61456,-0.55869c0,-0.27934 -0.27934,-0.61456 -0.50282,-0.78216c-0.78216,-0.11174 -1.62019,-0.33521 -2.45822,-0.44695c-4.19016,-0.83803 -7.3188,-4.63711 -7.3188,-9.05074c0,-4.86058 3.96668,-8.82726 8.77139,-8.82726h7.65402c4.74884,0 8.77139,3.96668 8.77139,8.82726c0,0.39108 0.27934,0.67042 0.67042,0.67042c0.39108,0 0.67042,-0.27934 0.67042,-0.67042c0,-5.64274 -4.52537,-10.22398 -10.11224,-10.22398h-7.65402c-5.64274,0 -10.16811,4.58124 -10.16811,10.22398c0,5.02819 3.5756,9.38595 8.54792,10.33572z"
           data-paper-data="{&quot;glyphName&quot;:&quot;S&quot;,&quot;glyphIndex&quot;:4,&quot;firstGlyphOfWord&quot;:true,&quot;word&quot;:2}"
           fill="#ffc600"
           id="path74"
           style="fill:#cda434;fill-opacity:1" />
        <path
           d="M283.8068,202.14025h-12.5146c-0.39108,0 -0.72629,0.33521 -0.72629,0.72629v40.67244c0,0.39108 0.33521,0.67042 0.72629,0.67042c0.39108,0 0.67042,-0.27934 0.67042,-0.67042v-40.00201h11.84417c4.86058,0 8.82726,3.96668 8.82726,8.82726c0,4.80471 -3.96668,8.77139 -8.82726,8.77139h-6.14556c-0.39108,0 -0.67042,0.33521 -0.67042,0.72629c0,0.39108 0.27934,0.67042 0.67042,0.67042h6.14556c5.64274,0 10.16811,-4.52537 10.16811,-10.16811c0,-5.64274 -4.52537,-10.22398 -10.16811,-10.22398z"
           data-paper-data="{&quot;glyphName&quot;:&quot;P&quot;,&quot;glyphIndex&quot;:5,&quot;word&quot;:2}"
           fill="#ffc600"
           id="path76"
           style="fill:#cda434;fill-opacity:1" />
        <path
           d="M301.74066,243.87419c0.11174,0.22347 0.39108,0.33521 0.67042,0.33521h23.63248c0.39108,0 0.72629,-0.27934 0.72629,-0.67042c0,-0.39108 -0.33521,-0.72629 -0.72629,-0.72629h-22.40336l10.78267,-17.59865l4.97232,4.97232c0.16761,0.16761 0.27934,0.22347 0.44695,0.22347c0.22347,0 0.44695,-0.11174 0.61456,-0.39108l5.47514,-5.41927c0.11174,-0.16761 0.22347,-0.33521 0.22347,-0.50282c0,-0.11174 -0.11174,-0.33521 -0.22347,-0.50282l-5.30753,-5.25166c-0.39108,-0.44695 -0.94977,-0.61456 -1.22911,-0.33521l-4.86058,4.80471l-10.8944,-17.82213h22.40336c0.39108,0 0.72629,-0.27934 0.72629,-0.67042c0,-0.39108 -0.33521,-0.67042 -0.72629,-0.67042h-23.63248c-0.27934,0 -0.55869,0.11174 -0.67042,0.33521c-0.11174,0.16761 -0.05587,0.50282 0.05587,0.72629l11.7883,19.27471l-11.7883,19.21885c-0.16761,0.22347 -0.16761,0.50282 -0.05587,0.67042zM315.14916,224.09666l4.69297,-4.69297l4.74884,4.69297l-4.74884,4.69297z"
           data-paper-data="{&quot;glyphName&quot;:&quot;E&quot;,&quot;glyphIndex&quot;:6,&quot;word&quot;:2}"
           fill="#ffc600"
           id="path78"
           style="fill:#cda434;fill-opacity:1" />
        <path
           d="M334.53561,224.04079l18.21321,18.21321c1.28498,1.28498 2.90517,1.95541 4.69297,1.95541c1.73193,0 3.40799,-0.67042 4.69297,-1.95541l8.54792,-8.54792c0.27934,-0.27934 0.27934,-0.67042 0,-0.8939c-0.27934,-0.27934 -0.67042,-0.27934 -0.94977,0l-8.54792,8.49205c-0.94977,0.83803 -2.40236,1.50846 -3.74321,1.50846c-1.45259,0 -2.79344,-0.55869 -3.79907,-1.50846l-17.71039,-17.76626l17.71039,-17.71039c1.00564,-1.00564 2.34649,-1.56432 3.79907,-1.56432c1.45259,0 2.79344,0.55869 3.74321,1.56432l8.54792,8.54792h-0.05587c0.27934,0.27934 0.78216,0.27934 1.06151,0h-0.05587c0.27934,-0.27934 0.27934,-0.72629 0,-0.94977l-8.54792,-8.60379c-1.28498,-1.22911 -2.96104,-1.89954 -4.69297,-1.89954c-1.7878,0 -3.40799,0.67042 -4.69297,1.89954l-18.21321,18.26908c-0.16761,0.16761 -0.22347,0.33521 -0.22347,0.44695c0,0.16761 0.05587,0.27934 0.22347,0.50282z"
           data-paper-data="{&quot;glyphName&quot;:&quot;C&quot;,&quot;glyphIndex&quot;:7,&quot;word&quot;:2}"
           fill="#ffc600"
           id="path80"
           style="fill:#cda434;fill-opacity:1" />
        <path
           d="M388.95176,203.59284h-15.25216c-0.39108,0 -0.67042,0.27934 -0.67042,0.67042c0,0.39108 0.27934,0.67042 0.67042,0.67042h14.52587v38.6053c0,0.39108 0.27934,0.67042 0.72629,0.67042c0.39108,0 0.67042,-0.27934 0.67042,-0.67042v-39.27572c0,-0.39108 -0.27934,-0.67042 -0.67042,-0.67042zM404.14806,203.59284h-11.11788c-0.39108,0 -0.67042,0.27934 -0.67042,0.67042c0,0.39108 0.27934,0.67042 0.67042,0.67042h11.11788c0.39108,0 0.67042,-0.27934 0.67042,-0.67042c0,-0.39108 -0.27934,-0.67042 -0.67042,-0.67042z"
           data-paper-data="{&quot;glyphName&quot;:&quot;T&quot;,&quot;glyphIndex&quot;:8,&quot;word&quot;:2}"
           fill="#ffc600"
           id="path82"
           style="fill:#cda434;fill-opacity:1" />
        <path
           d="M436.49605,243.1479l-15.58738,-20.61556h4.69297c5.64274,0 10.16811,-4.52537 10.16811,-10.16811c0,-5.64274 -4.52537,-10.22398 -10.16811,-10.22398h-12.5146c-0.44695,0 -0.72629,0.33521 -0.72629,0.72629v40.67244c0,0.39108 0.27934,0.67042 0.72629,0.67042c0.39108,0 0.67042,-0.27934 0.67042,-0.67042v-40.00201h11.84417c4.86058,0 8.82726,3.96668 8.82726,8.82726c0,4.80471 -3.96668,8.77139 -8.82726,8.77139h-6.14556c-0.22347,0 -0.44695,0.16761 -0.61456,0.44695v-0.05587c-0.11174,0.22347 -0.05587,0.55869 0.11174,0.78216l-0.05587,-0.05587l16.53715,21.67707c0.16761,0.16761 0.33521,0.27934 0.50282,0.27934c0.16761,0 0.33521,-0.05587 0.50282,-0.16761l-0.05587,0.05587c0.27934,-0.22347 0.33521,-0.67042 0.11174,-0.94977z"
           data-paper-data="{&quot;glyphName&quot;:&quot;R&quot;,&quot;glyphIndex&quot;:9,&quot;word&quot;:2}"
           fill="#ffc600"
           id="path84"
           style="fill:#cda434;fill-opacity:1" />
        <path
           d="M444.65289,244.15354h0.05587c0.05587,0.05587 0.16761,0.05587 0.27934,0.05587c0.27934,0 0.50282,-0.16761 0.67042,-0.39108c6.08969,-12.12352 12.96155,-25.92309 18.9395,-37.99074l19.05124,37.99074c0.16761,0.33521 0.61456,0.50282 0.94977,0.33521c0.33521,-0.16761 0.50282,-0.50282 0.33521,-0.94977v0.05587l-19.66579,-39.33159c-0.11174,-0.22347 -0.39108,-0.33521 -0.67042,-0.33521c-0.22347,0 -0.44695,0.11174 -0.55869,0.33521l-19.66579,39.33159v-0.05587c-0.16761,0.44695 -0.05587,0.83803 0.27934,0.94977z"
           data-paper-data="{&quot;glyphName&quot;:&quot;A&quot;,&quot;glyphIndex&quot;:10,&quot;lastGlyphOfWord&quot;:true,&quot;word&quot;:2}"
           fill="#ffc600"
           id="path86"
           style="fill:#cda434;fill-opacity:1" />
      </g>
    </g>
  </g>
</svg>
