<?xml version="1.0" encoding="UTF-8" standalone="no"?>
<svg
   svg:contrastcolor="ffffff"
   svg:template="Contrast"
   svg:presentation="2.5"
   svg:layouttype="undefined"
   svg:specialfontid="undefined"
   svg:id1="725"
   svg:id2="071"
   svg:companyname="Math Spectra"
   svg:companytagline="Explore the Beauty of Linear Algebra"
   version="1.1"
   viewBox="0 35 550 400"
   id="svg122"
   xmlns="http://www.w3.org/2000/svg"
   xmlns:svg="http://www.w3.org/2000/svg">
  <defs
     id="defs126" />
  <g
     fill="none"
     fill-rule="nonzero"
     stroke="none"
     stroke-width="1"
     stroke-linecap="butt"
     stroke-linejoin="miter"
     stroke-miterlimit="10"
     stroke-dasharray=""
     stroke-dashoffset="0"
     font-family="none"
     font-weight="none"
     font-size="none"
     text-anchor="none"
     style="mix-blend-mode: normal"
     id="g92">
    <g
       data-paper-data="{&quot;isGlobalGroup&quot;:true,&quot;bounds&quot;:{&quot;x&quot;:64.99999999999999,&quot;y&quot;:202.140249203768,&quot;width&quot;:420,&quot;height&quot;:65.71950159246398}}"
       id="g90">
      <g
         data-paper-data="{&quot;isSecondaryText&quot;:true}"
         fill="#ffc600"
         id="g64"
         style="fill:#d3d3d3;fill-opacity:1">
        <path
           d="M66.06426,263.49925h5.5578c0.62082,0 0.59125,-0.94601 0,-0.94601h-5.5578v-3.32581h5.83864c0.62082,0 0.65038,-0.94601 0.01478,-0.94601h-6.23774c-0.41388,0 -0.67994,0.29563 -0.67994,0.6356v8.11497c0,0.35475 0.26606,0.65038 0.67994,0.65038h6.22296c0.70951,0 0.62082,-0.97557 0,-0.97557h-5.83864z"
           data-paper-data="{&quot;glyphName&quot;:&quot;E&quot;,&quot;glyphIndex&quot;:0,&quot;firstGlyphOfWord&quot;:true,&quot;word&quot;:1}"
           id="path2"
           style="fill:#d3d3d3;fill-opacity:1" />
        <path
           d="M77.71691,258.31098c-0.44344,-0.50257 -1.24164,0.14781 -0.81298,0.6356l3.4145,3.93184l-3.51797,4.02053c-0.50257,0.57647 0.25128,1.25642 0.79819,0.66516l3.4145,-3.91706l3.37015,3.91706c0.57647,0.57647 1.33032,-0.02956 0.82776,-0.65038l-3.53275,-4.03531l3.42928,-3.90228c0.473,-0.50257 -0.36953,-1.18251 -0.81298,-0.65038l-3.28146,3.84316z"
           data-paper-data="{&quot;glyphName&quot;:&quot;X&quot;,&quot;glyphIndex&quot;:1,&quot;word&quot;:1}"
           id="path4"
           style="fill:#d3d3d3;fill-opacity:1" />
        <path
           d="M91.1581,259.22743h2.70499c1.71464,0 2.67543,1.22685 2.69021,2.43893c0.02956,1.12338 -0.78341,2.27633 -2.74934,2.27633h-2.64587zM93.80397,264.90348c2.58674,0 3.79881,-1.46336 3.79881,-3.23712c0,-1.69986 -1.19729,-3.39972 -3.75447,-3.39972h-3.20756c-0.29563,0 -0.54691,0.20694 -0.54691,0.51735v8.51407c0,0.65038 1.06426,0.66516 1.06426,-0.01478v-2.3798z"
           data-paper-data="{&quot;glyphName&quot;:&quot;P&quot;,&quot;glyphIndex&quot;:2,&quot;word&quot;:1}"
           id="path6"
           style="fill:#d3d3d3;fill-opacity:1" />
        <path
           d="M109.25543,267.68237c0.75385,0 0.75385,-0.97557 0,-0.97557h-5.52823v-8.05585c0,-0.69472 -1.09382,-0.69472 -1.09382,0v8.48451c0,0.35475 0.1626,0.54691 0.56169,0.54691z"
           data-paper-data="{&quot;glyphName&quot;:&quot;L&quot;,&quot;glyphIndex&quot;:3,&quot;word&quot;:1}"
           id="path8"
           style="fill:#d3d3d3;fill-opacity:1" />
        <path
           d="M117.83355,267.84497c2.51283,0 4.73004,-1.95114 4.73004,-5.02567c0,-2.42414 -1.75898,-4.31616 -4.03531,-4.67091c-0.51735,-0.05913 -1.01991,-0.07391 -1.56683,0c-2.35024,0.36953 -3.91706,2.35024 -3.91706,4.67091c0,3.13365 2.12852,5.02567 4.78916,5.02567zM117.10926,259.13874c0.41388,-0.05913 0.84254,-0.05913 1.28598,0c1.81811,0.29563 3.07453,1.81811 3.07453,3.72491c0,2.48327 -1.64073,3.96141 -3.63622,3.96141c-2.08417,0 -3.68056,-1.53726 -3.68056,-3.96141c0,-2.01027 1.16773,-3.44406 2.95627,-3.72491z"
           data-paper-data="{&quot;glyphName&quot;:&quot;O&quot;,&quot;glyphIndex&quot;:4,&quot;word&quot;:1}"
           id="path10"
           style="fill:#d3d3d3;fill-opacity:1" />
        <path
           d="M128.79147,259.25699h2.98584c1.71464,0 2.73455,0.97557 2.74934,2.18764c0.02956,1.1086 -0.81298,2.01027 -2.74934,2.01027h-2.98584zM131.65906,264.38613l2.98584,3.23712c0.48779,0.50257 1.30076,-0.14781 0.73907,-0.70951l-2.39458,-2.58674c1.81811,-0.31041 2.63108,-1.38945 2.63108,-2.88237c0,-1.72942 -1.30076,-3.17799 -3.85794,-3.17799h-3.50319c-0.32519,0 -0.54691,0.20694 -0.54691,0.51735v8.48451c0,0.66516 1.07904,0.66516 1.07904,-0.01478v-2.86759z"
           data-paper-data="{&quot;glyphName&quot;:&quot;R&quot;,&quot;glyphIndex&quot;:5,&quot;word&quot;:1}"
           id="path12"
           style="fill:#d3d3d3;fill-opacity:1" />
        <path
           d="M141.56751,263.49925h5.5578c0.62082,0 0.59125,-0.94601 0,-0.94601h-5.5578v-3.32581h5.83864c0.62082,0 0.65038,-0.94601 0.01478,-0.94601h-6.23774c-0.41388,0 -0.67994,0.29563 -0.67994,0.6356v8.11497c0,0.35475 0.26606,0.65038 0.67994,0.65038h6.22296c0.70951,0 0.62082,-0.97557 0,-0.97557h-5.83864z"
           data-paper-data="{&quot;glyphName&quot;:&quot;E&quot;,&quot;glyphIndex&quot;:6,&quot;lastGlyphOfWord&quot;:true,&quot;word&quot;:1}"
           id="path14"
           style="fill:#d3d3d3;fill-opacity:1" />
        <path
           d="M159.37413,258.26664c-0.69472,0 -0.69472,1.01991 0,1.01991h3.28146v8.02628c0,0.36953 0.28085,0.54691 0.53213,0.54691c0.25128,0 0.56169,-0.17738 0.56169,-0.54691c0,-2.66065 -0.01478,-5.36564 -0.01478,-8.02628h3.29625c0.72429,0 0.72429,-1.01991 0,-1.01991z"
           data-paper-data="{&quot;glyphName&quot;:&quot;T&quot;,&quot;glyphIndex&quot;:7,&quot;firstGlyphOfWord&quot;:true,&quot;word&quot;:2}"
           id="path16"
           style="fill:#d3d3d3;fill-opacity:1" />
        <path
           d="M172.96314,258.63617c0,-0.67994 -1.06426,-0.72429 -1.06426,0v8.61754c0,0.67994 1.06426,0.76863 1.06426,0v-3.651c1.9068,0 3.56231,0 5.43954,0v3.651c0,0.75385 1.07904,0.72429 1.07904,0v-8.61754c0,-0.70951 -1.07904,-0.70951 -1.07904,0v4.03531h-5.43954z"
           data-paper-data="{&quot;glyphName&quot;:&quot;H&quot;,&quot;glyphIndex&quot;:8,&quot;word&quot;:2}"
           id="path18"
           style="fill:#d3d3d3;fill-opacity:1" />
        <path
           d="M185.8722,263.49925h5.5578c0.62082,0 0.59125,-0.94601 0,-0.94601h-5.5578v-3.32581h5.83864c0.62082,0 0.65038,-0.94601 0.01478,-0.94601h-6.23774c-0.41388,0 -0.67994,0.29563 -0.67994,0.6356v8.11497c0,0.35475 0.26606,0.65038 0.67994,0.65038h6.22296c0.70951,0 0.62082,-0.97557 0,-0.97557h-5.83864z"
           data-paper-data="{&quot;glyphName&quot;:&quot;E&quot;,&quot;glyphIndex&quot;:9,&quot;lastGlyphOfWord&quot;:true,&quot;word&quot;:2}"
           id="path20"
           style="fill:#d3d3d3;fill-opacity:1" />
        <path
           d="M212.69547,264.8887c0,-1.19729 -0.73907,-1.95114 -1.81811,-2.29111c0.76863,-0.31041 1.13817,-0.99035 1.13817,-1.75898c0,-2.09895 -2.12852,-2.55718 -3.50319,-2.55718h-3.50319c-0.29563,0 -0.54691,0.2365 -0.54691,0.53213v8.33669c0,0.29563 0.25128,0.53213 0.54691,0.53213h3.84316c1.86245,0 3.84316,-0.59125 3.84316,-2.79368zM208.51234,259.24221c0.91645,0 2.42414,0.32519 2.42414,1.59639c0,1.07904 -1.1086,1.41901 -2.3798,1.41901h-3.0154v-3.0154zM205.54128,263.2184h3.75447c1.28598,0 2.29111,0.50257 2.29111,1.6703c0,1.49292 -1.43379,1.83289 -2.73455,1.83289h-3.31103z"
           data-paper-data="{&quot;glyphName&quot;:&quot;B&quot;,&quot;glyphIndex&quot;:10,&quot;firstGlyphOfWord&quot;:true,&quot;word&quot;:3}"
           id="path22"
           style="fill:#d3d3d3;fill-opacity:1" />
        <path
           d="M218.74597,263.49925h5.5578c0.62082,0 0.59125,-0.94601 0,-0.94601h-5.5578v-3.32581h5.83864c0.62082,0 0.65038,-0.94601 0.01478,-0.94601h-6.23774c-0.41388,0 -0.67994,0.29563 -0.67994,0.6356v8.11497c0,0.35475 0.26606,0.65038 0.67994,0.65038h6.22296c0.70951,0 0.62082,-0.97557 0,-0.97557h-5.83864z"
           data-paper-data="{&quot;glyphName&quot;:&quot;E&quot;,&quot;glyphIndex&quot;:11,&quot;word&quot;:3}"
           id="path24"
           style="fill:#d3d3d3;fill-opacity:1" />
        <path
           d="M236.38508,264.26788h-4.65613l2.33546,-4.65613zM236.8433,265.1991l1.15295,2.29111c0.28085,0.57647 1.37467,0.20694 0.99035,-0.42866l-4.44919,-8.75057c-0.10347,-0.19216 -0.28085,-0.28085 -0.473,-0.28085c-0.19216,0 -0.3991,0.08869 -0.48779,0.28085l-4.46397,8.79492c-0.26606,0.59125 0.70951,0.97557 0.97557,0.42866l1.19729,-2.33546z"
           data-paper-data="{&quot;glyphName&quot;:&quot;A&quot;,&quot;glyphIndex&quot;:12,&quot;word&quot;:3}"
           id="path26"
           style="fill:#d3d3d3;fill-opacity:1" />
        <path
           d="M250.71315,263.51403c0,4.27182 -6.5038,4.27182 -6.5038,0v-4.84829c0,-0.66516 -1.1086,-0.66516 -1.1086,-0.01478v4.86307c0,2.83802 2.20242,4.27182 4.3605,4.27182c2.15808,0 4.3605,-1.43379 4.3605,-4.27182v-4.86307c0,-0.70951 -1.1086,-0.70951 -1.1086,0.01478z"
           data-paper-data="{&quot;glyphName&quot;:&quot;U&quot;,&quot;glyphIndex&quot;:13,&quot;word&quot;:3}"
           id="path28"
           style="fill:#d3d3d3;fill-opacity:1" />
        <path
           d="M256.66019,258.26664c-0.69472,0 -0.69472,1.01991 0,1.01991h3.28146v8.02628c0,0.36953 0.28085,0.54691 0.53213,0.54691c0.25128,0 0.56169,-0.17738 0.56169,-0.54691c0,-2.66065 -0.01478,-5.36564 -0.01478,-8.02628h3.29625c0.72429,0 0.72429,-1.01991 0,-1.01991z"
           data-paper-data="{&quot;glyphName&quot;:&quot;T&quot;,&quot;glyphIndex&quot;:14,&quot;word&quot;:3}"
           id="path30"
           style="fill:#d3d3d3;fill-opacity:1" />
        <path
           d="M272.42206,267.19459c0,0.36953 0.25128,0.54691 0.54691,0.54691c0.25128,0 0.54691,-0.17738 0.54691,-0.54691v-3.31103l3.71012,-4.98132c0.3991,-0.62082 -0.51735,-1.09382 -0.88688,-0.53213l-3.38493,4.58223l-3.34059,-4.56744c-0.3991,-0.59125 -1.37467,-0.04434 -0.93123,0.54691l3.73969,4.95176z"
           data-paper-data="{&quot;glyphName&quot;:&quot;Y&quot;,&quot;glyphIndex&quot;:15,&quot;lastGlyphOfWord&quot;:true,&quot;word&quot;:3}"
           id="path32"
           style="fill:#d3d3d3;fill-opacity:1" />
        <path
           d="M293.19974,267.84497c2.51283,0 4.73004,-1.95114 4.73004,-5.02567c0,-2.42414 -1.75898,-4.31616 -4.03531,-4.67091c-0.51735,-0.05913 -1.01991,-0.07391 -1.56683,0c-2.35024,0.36953 -3.91706,2.35024 -3.91706,4.67091c0,3.13365 2.12852,5.02567 4.78916,5.02567zM292.47546,259.13874c0.41388,-0.05913 0.84254,-0.05913 1.28598,0c1.81811,0.29563 3.07453,1.81811 3.07453,3.72491c0,2.48327 -1.64073,3.96141 -3.63622,3.96141c-2.08417,0 -3.68056,-1.53726 -3.68056,-3.96141c0,-2.01027 1.16773,-3.44406 2.95627,-3.72491z"
           data-paper-data="{&quot;glyphName&quot;:&quot;O&quot;,&quot;glyphIndex&quot;:16,&quot;firstGlyphOfWord&quot;:true,&quot;word&quot;:4}"
           id="path34"
           style="fill:#d3d3d3;fill-opacity:1" />
        <path
           d="M303.09341,267.31284c0,0.72429 1.06426,0.72429 1.06426,-0.01478v-3.45884h5.3952c0.60604,0 0.57647,-0.91645 0,-0.91645h-5.3952v-3.71012h5.67605c0.62082,0 0.62082,-0.93123 0,-0.93123h-6.08993c-0.35475,0 -0.65038,0.29563 -0.65038,0.6356z"
           data-paper-data="{&quot;glyphName&quot;:&quot;F&quot;,&quot;glyphIndex&quot;:17,&quot;lastGlyphOfWord&quot;:true,&quot;word&quot;:4}"
           id="path36"
           style="fill:#d3d3d3;fill-opacity:1" />
        <path
           d="M329.01501,267.68237c0.75385,0 0.75385,-0.97557 0,-0.97557h-5.52823v-8.05585c0,-0.69472 -1.09382,-0.69472 -1.09382,0v8.48451c0,0.35475 0.1626,0.54691 0.56169,0.54691z"
           data-paper-data="{&quot;glyphName&quot;:&quot;L&quot;,&quot;glyphIndex&quot;:18,&quot;firstGlyphOfWord&quot;:true,&quot;word&quot;:5}"
           id="path38"
           style="fill:#d3d3d3;fill-opacity:1" />
        <path
           d="M333.88301,267.31284c0,0.70951 1.1086,0.67994 1.1086,0v-8.83926c0,-0.72429 -1.1086,-0.73907 -1.1086,0z"
           data-paper-data="{&quot;glyphName&quot;:&quot;I&quot;,&quot;glyphIndex&quot;:19,&quot;word&quot;:5}"
           id="path40"
           style="fill:#d3d3d3;fill-opacity:1" />
        <path
           d="M346.98423,263.86878l0.14781,2.23199l-5.69083,-7.61241c-0.36953,-0.54691 -1.19729,-0.42866 -1.19729,0.31041v8.46973c0,0.73907 1.12338,0.72429 1.12338,0v-5.21782l-0.11825,-2.03983l5.52823,7.40547c0.31041,0.51735 1.33032,0.44344 1.33032,-0.29563v-8.48451c0,-0.65038 -1.12338,-0.62082 -1.12338,0z"
           data-paper-data="{&quot;glyphName&quot;:&quot;N&quot;,&quot;glyphIndex&quot;:20,&quot;word&quot;:5}"
           id="path42"
           style="fill:#d3d3d3;fill-opacity:1" />
        <path
           d="M354.67547,263.49925h5.5578c0.62082,0 0.59125,-0.94601 0,-0.94601h-5.5578v-3.32581h5.83864c0.62082,0 0.65038,-0.94601 0.01478,-0.94601h-6.23774c-0.41388,0 -0.67994,0.29563 -0.67994,0.6356v8.11497c0,0.35475 0.26606,0.65038 0.67994,0.65038h6.22296c0.70951,0 0.62082,-0.97557 0,-0.97557h-5.83864z"
           data-paper-data="{&quot;glyphName&quot;:&quot;E&quot;,&quot;glyphIndex&quot;:21,&quot;word&quot;:5}"
           id="path44"
           style="fill:#d3d3d3;fill-opacity:1" />
        <path
           d="M372.31457,264.26788h-4.65613l2.33546,-4.65613zM372.77279,265.1991l1.15295,2.29111c0.28085,0.57647 1.37467,0.20694 0.99035,-0.42866l-4.44919,-8.75057c-0.10347,-0.19216 -0.28085,-0.28085 -0.473,-0.28085c-0.19216,0 -0.3991,0.08869 -0.48779,0.28085l-4.46397,8.79492c-0.26606,0.59125 0.70951,0.97557 0.97557,0.42866l1.19729,-2.33546z"
           data-paper-data="{&quot;glyphName&quot;:&quot;A&quot;,&quot;glyphIndex&quot;:22,&quot;word&quot;:5}"
           id="path46"
           style="fill:#d3d3d3;fill-opacity:1" />
        <path
           d="M380.59707,259.25699h2.98584c1.71464,0 2.73455,0.97557 2.74934,2.18764c0.02956,1.1086 -0.81298,2.01027 -2.74934,2.01027h-2.98584zM383.46465,264.38613l2.98584,3.23712c0.48779,0.50257 1.30076,-0.14781 0.73907,-0.70951l-2.39458,-2.58674c1.81811,-0.31041 2.63108,-1.38945 2.63108,-2.88237c0,-1.72942 -1.30076,-3.17799 -3.85794,-3.17799h-3.50319c-0.32519,0 -0.54691,0.20694 -0.54691,0.51735v8.48451c0,0.66516 1.07904,0.66516 1.07904,-0.01478v-2.86759z"
           data-paper-data="{&quot;glyphName&quot;:&quot;R&quot;,&quot;glyphIndex&quot;:23,&quot;lastGlyphOfWord&quot;:true,&quot;word&quot;:5}"
           id="path48"
           style="fill:#d3d3d3;fill-opacity:1" />
        <path
           d="M405.60222,264.26788h-4.65613l2.33546,-4.65613zM406.06044,265.1991l1.15295,2.29111c0.28085,0.57647 1.37467,0.20694 0.99035,-0.42866l-4.44919,-8.75057c-0.10347,-0.19216 -0.28085,-0.28085 -0.473,-0.28085c-0.19216,0 -0.3991,0.08869 -0.48779,0.28085l-4.46397,8.79492c-0.26606,0.59125 0.70951,0.97557 0.97557,0.42866l1.19729,-2.33546z"
           data-paper-data="{&quot;glyphName&quot;:&quot;A&quot;,&quot;glyphIndex&quot;:24,&quot;firstGlyphOfWord&quot;:true,&quot;word&quot;:6}"
           id="path50"
           style="fill:#d3d3d3;fill-opacity:1" />
        <path
           d="M419.42773,267.68237c0.75385,0 0.75385,-0.97557 0,-0.97557h-5.52823v-8.05585c0,-0.69472 -1.09382,-0.69472 -1.09382,0v8.48451c0,0.35475 0.1626,0.54691 0.56169,0.54691z"
           data-paper-data="{&quot;glyphName&quot;:&quot;L&quot;,&quot;glyphIndex&quot;:25,&quot;word&quot;:6}"
           id="path52"
           style="fill:#d3d3d3;fill-opacity:1" />
        <path
           d="M432.39592,265.55386v-2.46849c0,-0.32519 -0.13303,-0.54691 -0.56169,-0.54691h-3.13365c-0.62082,0 -0.69472,0.97557 0,0.97557h2.66065v1.96592c-0.65038,0.8721 -1.78855,1.3451 -2.88237,1.33032c-1.9068,-0.04434 -3.59187,-1.78855 -3.62144,-3.87272c0,-1.93636 1.41901,-3.37015 3.04496,-3.75447c1.1086,-0.28085 2.48327,0.05913 3.31103,1.01991c0.45822,0.53213 1.21207,-0.17738 0.76863,-0.69472c-0.81298,-0.94601 -2.18764,-1.38945 -3.47362,-1.38945c-0.26606,0 -0.54691,0.01478 -0.76863,0.04434c-2.26155,0.42866 -3.94663,2.48327 -3.94663,4.73004c-0.05913,2.79368 2.12852,4.90742 4.67091,4.9222c1.43379,0.01478 2.89715,-0.62082 3.76925,-1.77376c0.13303,-0.13303 0.1626,-0.32519 0.1626,-0.48779z"
           data-paper-data="{&quot;glyphName&quot;:&quot;G&quot;,&quot;glyphIndex&quot;:26,&quot;word&quot;:6}"
           id="path54"
           style="fill:#d3d3d3;fill-opacity:1" />
        <path
           d="M438.65337,263.49925h5.5578c0.62082,0 0.59125,-0.94601 0,-0.94601h-5.5578v-3.32581h5.83864c0.62082,0 0.65038,-0.94601 0.01478,-0.94601h-6.23774c-0.41388,0 -0.67994,0.29563 -0.67994,0.6356v8.11497c0,0.35475 0.26606,0.65038 0.67994,0.65038h6.22296c0.70951,0 0.62082,-0.97557 0,-0.97557h-5.83864z"
           data-paper-data="{&quot;glyphName&quot;:&quot;E&quot;,&quot;glyphIndex&quot;:27,&quot;word&quot;:6}"
           id="path56"
           style="fill:#d3d3d3;fill-opacity:1" />
        <path
           d="M458.36186,264.8887c0,-1.19729 -0.73907,-1.95114 -1.81811,-2.29111c0.76863,-0.31041 1.13817,-0.99035 1.13817,-1.75898c0,-2.09895 -2.12852,-2.55718 -3.50319,-2.55718h-3.50319c-0.29563,0 -0.54691,0.2365 -0.54691,0.53213v8.33669c0,0.29563 0.25128,0.53213 0.54691,0.53213h3.84316c1.86245,0 3.84316,-0.59125 3.84316,-2.79368zM454.17874,259.24221c0.91645,0 2.42414,0.32519 2.42414,1.59639c0,1.07904 -1.1086,1.41901 -2.3798,1.41901h-3.0154v-3.0154zM451.20768,263.2184h3.75447c1.28598,0 2.29111,0.50257 2.29111,1.6703c0,1.49292 -1.43379,1.83289 -2.73455,1.83289h-3.31103z"
           data-paper-data="{&quot;glyphName&quot;:&quot;B&quot;,&quot;glyphIndex&quot;:28,&quot;word&quot;:6}"
           id="path58"
           style="fill:#d3d3d3;fill-opacity:1" />
        <path
           d="M464.42715,259.25699h2.98584c1.71464,0 2.73455,0.97557 2.74934,2.18764c0.02956,1.1086 -0.81298,2.01027 -2.74934,2.01027h-2.98584zM467.29474,264.38613l2.98584,3.23712c0.48779,0.50257 1.30076,-0.14781 0.73907,-0.70951l-2.39458,-2.58674c1.81811,-0.31041 2.63108,-1.38945 2.63108,-2.88237c0,-1.72942 -1.30076,-3.17799 -3.85794,-3.17799h-3.50319c-0.32519,0 -0.54691,0.20694 -0.54691,0.51735v8.48451c0,0.66516 1.07904,0.66516 1.07904,-0.01478v-2.86759z"
           data-paper-data="{&quot;glyphName&quot;:&quot;R&quot;,&quot;glyphIndex&quot;:29,&quot;word&quot;:6}"
           id="path60"
           style="fill:#d3d3d3;fill-opacity:1" />
        <path
           d="M482.31754,264.26788h-4.65613l2.33546,-4.65613zM482.77576,265.1991l1.15295,2.29111c0.28085,0.57647 1.37467,0.20694 0.99035,-0.42866l-4.44919,-8.75057c-0.10347,-0.19216 -0.28085,-0.28085 -0.473,-0.28085c-0.19216,0 -0.3991,0.08869 -0.48779,0.28085l-4.46397,8.79492c-0.26606,0.59125 0.70951,0.97557 0.97557,0.42866l1.19729,-2.33546z"
           data-paper-data="{&quot;glyphName&quot;:&quot;A&quot;,&quot;glyphIndex&quot;:30,&quot;lastGlyphOfWord&quot;:true,&quot;word&quot;:6}"
           id="path62"
           style="fill:#d3d3d3;fill-opacity:1" />
      </g>
      <g
         data-paper-data="{&quot;isPrimaryText&quot;:true}"
         id="g88">
        <path
           d="M98.71368,203.64871c-0.27934,-0.11174 -0.67042,0.05587 -1.00564,0.44695l-15.64325,15.92259l-15.97846,-16.2578c-0.05587,0 -0.11174,-0.05587 -0.11174,-0.11174c-0.05587,0 -0.05587,0 -0.11174,-0.05587h-0.16761l-0.11174,0.05587l-0.05587,0.05587c0,0 -0.05587,0 -0.16761,0.11174c-0.05587,0 -0.05587,0.05587 -0.05587,0.05587v0.22347h-0.27934v0.05587v39.38746c0,0.39108 0.33521,0.67042 0.72629,0.67042c0.39108,0 0.67042,-0.27934 0.67042,-0.67042v-37.59966l14.69348,14.97282l-5.19579,5.19579v-0.05587c-0.27934,0.27934 -0.27934,0.78216 0,1.06151v-0.05587l5.69861,5.64274c0.16761,0.16761 0.27934,0.22347 0.44695,0.22347c0.16761,0 0.33521,-0.11174 0.50282,-0.22347l5.58687,-5.64274c0.16761,-0.16761 0.22347,-0.27934 0.22347,-0.50282c0,-0.11174 -0.05587,-0.27934 -0.22347,-0.44695l-5.13992,-5.19579l14.74935,-14.97282v37.59966c0,0.39108 0.27934,0.67042 0.67042,0.67042c0.39108,0 0.67042,-0.27934 0.67042,-0.67042v-39.27572c0,-0.27934 -0.16761,-0.50282 -0.39108,-0.61456zM65.02483,204.03979l0.05587,-0.22347c0,0.05587 0,0.22347 -0.05587,0.27934c0,0 -0.05587,0 0,-0.05587zM66.08634,203.76044l0.33521,0.11174c-0.11174,0 -0.22347,-0.05587 -0.33521,-0.11174zM65.19244,203.87218l0.11174,-0.05587v0.05587zM86.81364,226.55489l-4.74884,4.74884l-4.69297,-4.74884l4.69297,-4.63711z"
           data-paper-data="{&quot;glyphName&quot;:&quot;M&quot;,&quot;glyphIndex&quot;:0,&quot;firstGlyphOfWord&quot;:true,&quot;word&quot;:1}"
           fill="#007a53"
           id="path66"
           style="fill:#004466;fill-opacity:1" />
        <path
           d="M106.92638,244.15354h0.05587c0.05587,0.05587 0.16761,0.05587 0.27934,0.05587c0.27934,0 0.50282,-0.16761 0.67042,-0.39108c6.08969,-12.12352 12.96155,-25.92309 18.9395,-37.99074l19.05124,37.99074c0.16761,0.33521 0.61456,0.50282 0.94977,0.33521c0.33521,-0.16761 0.50282,-0.50282 0.33521,-0.94977v0.05587l-19.66579,-39.33159c-0.11174,-0.22347 -0.39108,-0.33521 -0.67042,-0.33521c-0.22347,0 -0.44695,0.11174 -0.55869,0.33521l-19.66579,39.33159v-0.05587c-0.16761,0.44695 -0.05587,0.83803 0.27934,0.94977z"
           data-paper-data="{&quot;glyphName&quot;:&quot;A&quot;,&quot;glyphIndex&quot;:1,&quot;word&quot;:1}"
           fill="#007a53"
           id="path68"
           style="fill:#004466;fill-opacity:1" />
        <path
           d="M159.6106,203.59284h-15.25216c-0.39108,0 -0.67042,0.27934 -0.67042,0.67042c0,0.39108 0.27934,0.67042 0.67042,0.67042h14.52587v38.6053c0,0.39108 0.27934,0.67042 0.72629,0.67042c0.39108,0 0.67042,-0.27934 0.67042,-0.67042v-39.27572c0,-0.39108 -0.27934,-0.67042 -0.67042,-0.67042zM174.8069,203.59284h-11.11788c-0.39108,0 -0.67042,0.27934 -0.67042,0.67042c0,0.39108 0.27934,0.67042 0.67042,0.67042h11.11788c0.39108,0 0.67042,-0.27934 0.67042,-0.67042c0,-0.39108 -0.27934,-0.67042 -0.67042,-0.67042z"
           data-paper-data="{&quot;glyphName&quot;:&quot;T&quot;,&quot;glyphIndex&quot;:2,&quot;word&quot;:1}"
           fill="#007a53"
           id="path70"
           style="fill:#004466;fill-opacity:1" />
        <path
           d="M204.24972,224.26427h-19.8334v-20.00101c0,-0.39108 -0.27934,-0.67042 -0.72629,-0.67042c-0.39108,0 -0.67042,0.27934 -0.67042,0.67042v39.27572c0,0.39108 0.27934,0.67042 0.67042,0.67042c0.44695,0 0.72629,-0.27934 0.72629,-0.67042v-17.93386h19.8334c0.39108,0 0.67042,-0.27934 0.67042,-0.67042c0,-0.39108 -0.27934,-0.67042 -0.67042,-0.67042zM209.38964,203.59284c-0.39108,0 -0.67042,0.27934 -0.67042,0.67042v39.27572c0,0.39108 0.27934,0.67042 0.67042,0.67042c0.39108,0 0.67042,-0.27934 0.67042,-0.67042v-39.27572c0,-0.39108 -0.27934,-0.67042 -0.67042,-0.67042z"
           data-paper-data="{&quot;glyphName&quot;:&quot;H&quot;,&quot;glyphIndex&quot;:3,&quot;lastGlyphOfWord&quot;:true,&quot;word&quot;:1}"
           fill="#007a53"
           id="path72"
           style="fill:#004466;fill-opacity:1" />
        <path
           d="M254.41984,223.48211h0.05587l-2.79344,-0.55869c-0.39108,-0.05587 -0.78216,0.16761 -0.83803,0.50282c-0.05587,0.39108 0.16761,0.78216 0.50282,0.83803l2.84931,0.55869c4.30189,0.83803 7.43054,4.74884 7.43054,9.16247c0,4.86058 -4.02255,8.82726 -8.77139,8.82726h-7.65402c-4.80471,0 -8.77139,-3.96668 -8.77139,-8.82726v-1.84367c0,-0.44695 -0.33521,-0.72629 -0.72629,-0.72629c-0.39108,0 -0.67042,0.27934 -0.67042,0.72629v1.84367c0,5.64274 4.52537,10.22398 10.16811,10.22398h7.65402c5.58687,0 10.11224,-4.58124 10.11224,-10.39158c0,-4.97232 -3.5756,-9.33008 -8.54792,-10.33572zM243.58131,222.69994l2.29062,0.50282h0.22347c0.22347,0 0.50282,-0.27934 0.61456,-0.55869c0,-0.27934 -0.27934,-0.61456 -0.50282,-0.78216c-0.78216,-0.11174 -1.62019,-0.33521 -2.45822,-0.44695c-4.19016,-0.83803 -7.3188,-4.63711 -7.3188,-9.05074c0,-4.86058 3.96668,-8.82726 8.77139,-8.82726h7.65402c4.74884,0 8.77139,3.96668 8.77139,8.82726c0,0.39108 0.27934,0.67042 0.67042,0.67042c0.39108,0 0.67042,-0.27934 0.67042,-0.67042c0,-5.64274 -4.52537,-10.22398 -10.11224,-10.22398h-7.65402c-5.64274,0 -10.16811,4.58124 -10.16811,10.22398c0,5.02819 3.5756,9.38595 8.54792,10.33572z"
           data-paper-data="{&quot;glyphName&quot;:&quot;S&quot;,&quot;glyphIndex&quot;:4,&quot;firstGlyphOfWord&quot;:true,&quot;word&quot;:2}"
           fill="#ffc600"
           id="path74"
           style="fill:#cda434;fill-opacity:1" />
        <path
           d="M283.8068,202.14025h-12.5146c-0.39108,0 -0.72629,0.33521 -0.72629,0.72629v40.67244c0,0.39108 0.33521,0.67042 0.72629,0.67042c0.39108,0 0.67042,-0.27934 0.67042,-0.67042v-40.00201h11.84417c4.86058,0 8.82726,3.96668 8.82726,8.82726c0,4.80471 -3.96668,8.77139 -8.82726,8.77139h-6.14556c-0.39108,0 -0.67042,0.33521 -0.67042,0.72629c0,0.39108 0.27934,0.67042 0.67042,0.67042h6.14556c5.64274,0 10.16811,-4.52537 10.16811,-10.16811c0,-5.64274 -4.52537,-10.22398 -10.16811,-10.22398z"
           data-paper-data="{&quot;glyphName&quot;:&quot;P&quot;,&quot;glyphIndex&quot;:5,&quot;word&quot;:2}"
           fill="#ffc600"
           id="path76"
           style="fill:#cda434;fill-opacity:1" />
        <path
           d="M301.74066,243.87419c0.11174,0.22347 0.39108,0.33521 0.67042,0.33521h23.63248c0.39108,0 0.72629,-0.27934 0.72629,-0.67042c0,-0.39108 -0.33521,-0.72629 -0.72629,-0.72629h-22.40336l10.78267,-17.59865l4.97232,4.97232c0.16761,0.16761 0.27934,0.22347 0.44695,0.22347c0.22347,0 0.44695,-0.11174 0.61456,-0.39108l5.47514,-5.41927c0.11174,-0.16761 0.22347,-0.33521 0.22347,-0.50282c0,-0.11174 -0.11174,-0.33521 -0.22347,-0.50282l-5.30753,-5.25166c-0.39108,-0.44695 -0.94977,-0.61456 -1.22911,-0.33521l-4.86058,4.80471l-10.8944,-17.82213h22.40336c0.39108,0 0.72629,-0.27934 0.72629,-0.67042c0,-0.39108 -0.33521,-0.67042 -0.72629,-0.67042h-23.63248c-0.27934,0 -0.55869,0.11174 -0.67042,0.33521c-0.11174,0.16761 -0.05587,0.50282 0.05587,0.72629l11.7883,19.27471l-11.7883,19.21885c-0.16761,0.22347 -0.16761,0.50282 -0.05587,0.67042zM315.14916,224.09666l4.69297,-4.69297l4.74884,4.69297l-4.74884,4.69297z"
           data-paper-data="{&quot;glyphName&quot;:&quot;E&quot;,&quot;glyphIndex&quot;:6,&quot;word&quot;:2}"
           fill="#ffc600"
           id="path78"
           style="fill:#cda434;fill-opacity:1" />
        <path
           d="M334.53561,224.04079l18.21321,18.21321c1.28498,1.28498 2.90517,1.95541 4.69297,1.95541c1.73193,0 3.40799,-0.67042 4.69297,-1.95541l8.54792,-8.54792c0.27934,-0.27934 0.27934,-0.67042 0,-0.8939c-0.27934,-0.27934 -0.67042,-0.27934 -0.94977,0l-8.54792,8.49205c-0.94977,0.83803 -2.40236,1.50846 -3.74321,1.50846c-1.45259,0 -2.79344,-0.55869 -3.79907,-1.50846l-17.71039,-17.76626l17.71039,-17.71039c1.00564,-1.00564 2.34649,-1.56432 3.79907,-1.56432c1.45259,0 2.79344,0.55869 3.74321,1.56432l8.54792,8.54792h-0.05587c0.27934,0.27934 0.78216,0.27934 1.06151,0h-0.05587c0.27934,-0.27934 0.27934,-0.72629 0,-0.94977l-8.54792,-8.60379c-1.28498,-1.22911 -2.96104,-1.89954 -4.69297,-1.89954c-1.7878,0 -3.40799,0.67042 -4.69297,1.89954l-18.21321,18.26908c-0.16761,0.16761 -0.22347,0.33521 -0.22347,0.44695c0,0.16761 0.05587,0.27934 0.22347,0.50282z"
           data-paper-data="{&quot;glyphName&quot;:&quot;C&quot;,&quot;glyphIndex&quot;:7,&quot;word&quot;:2}"
           fill="#ffc600"
           id="path80"
           style="fill:#cda434;fill-opacity:1" />
        <path
           d="M388.95176,203.59284h-15.25216c-0.39108,0 -0.67042,0.27934 -0.67042,0.67042c0,0.39108 0.27934,0.67042 0.67042,0.67042h14.52587v38.6053c0,0.39108 0.27934,0.67042 0.72629,0.67042c0.39108,0 0.67042,-0.27934 0.67042,-0.67042v-39.27572c0,-0.39108 -0.27934,-0.67042 -0.67042,-0.67042zM404.14806,203.59284h-11.11788c-0.39108,0 -0.67042,0.27934 -0.67042,0.67042c0,0.39108 0.27934,0.67042 0.67042,0.67042h11.11788c0.39108,0 0.67042,-0.27934 0.67042,-0.67042c0,-0.39108 -0.27934,-0.67042 -0.67042,-0.67042z"
           data-paper-data="{&quot;glyphName&quot;:&quot;T&quot;,&quot;glyphIndex&quot;:8,&quot;word&quot;:2}"
           fill="#ffc600"
           id="path82"
           style="fill:#cda434;fill-opacity:1" />
        <path
           d="M436.49605,243.1479l-15.58738,-20.61556h4.69297c5.64274,0 10.16811,-4.52537 10.16811,-10.16811c0,-5.64274 -4.52537,-10.22398 -10.16811,-10.22398h-12.5146c-0.44695,0 -0.72629,0.33521 -0.72629,0.72629v40.67244c0,0.39108 0.27934,0.67042 0.72629,0.67042c0.39108,0 0.67042,-0.27934 0.67042,-0.67042v-40.00201h11.84417c4.86058,0 8.82726,3.96668 8.82726,8.82726c0,4.80471 -3.96668,8.77139 -8.82726,8.77139h-6.14556c-0.22347,0 -0.44695,0.16761 -0.61456,0.44695v-0.05587c-0.11174,0.22347 -0.05587,0.55869 0.11174,0.78216l-0.05587,-0.05587l16.53715,21.67707c0.16761,0.16761 0.33521,0.27934 0.50282,0.27934c0.16761,0 0.33521,-0.05587 0.50282,-0.16761l-0.05587,0.05587c0.27934,-0.22347 0.33521,-0.67042 0.11174,-0.94977z"
           data-paper-data="{&quot;glyphName&quot;:&quot;R&quot;,&quot;glyphIndex&quot;:9,&quot;word&quot;:2}"
           fill="#ffc600"
           id="path84"
           style="fill:#cda434;fill-opacity:1" />
        <path
           d="M444.65289,244.15354h0.05587c0.05587,0.05587 0.16761,0.05587 0.27934,0.05587c0.27934,0 0.50282,-0.16761 0.67042,-0.39108c6.08969,-12.12352 12.96155,-25.92309 18.9395,-37.99074l19.05124,37.99074c0.16761,0.33521 0.61456,0.50282 0.94977,0.33521c0.33521,-0.16761 0.50282,-0.50282 0.33521,-0.94977v0.05587l-19.66579,-39.33159c-0.11174,-0.22347 -0.39108,-0.33521 -0.67042,-0.33521c-0.22347,0 -0.44695,0.11174 -0.55869,0.33521l-19.66579,39.33159v-0.05587c-0.16761,0.44695 -0.05587,0.83803 0.27934,0.94977z"
           data-paper-data="{&quot;glyphName&quot;:&quot;A&quot;,&quot;glyphIndex&quot;:10,&quot;lastGlyphOfWord&quot;:true,&quot;word&quot;:2}"
           fill="#ffc600"
           id="path86"
           style="fill:#cda434;fill-opacity:1" />
      </g>
    </g>
  </g>
</svg>
